<svg id="union_bank_of_india" data-name="union bank of india" xmlns="http://www.w3.org/2000/svg" width="29.14" height="24.964" viewBox="0 0 29.14 24.964">
  <g id="_00579cff" data-name="#00579cff" transform="translate(7.528 0)">
    <path id="path8" d="M195.016,248h1.315a2.7,2.7,0,0,0,.339.039,9.49,9.49,0,0,1,4.245,1.415,7.431,7.431,0,0,1,2.7,3.112,8.14,8.14,0,0,1,.706,2.625c.025.146.014.3.04.442.014.178,0,.357.006.535a4.324,4.324,0,0,1-.02.618,10.7,10.7,0,0,1-.2,1.57c-.054.309-.15.609-.211.916q-.933,3.738-1.869,7.476c-.1.462-.227.918-.338,1.378a2.757,2.757,0,0,1-.322.855,2.257,2.257,0,0,1-.471.528,2.505,2.505,0,0,1-1.538.513,2.842,2.842,0,0,1-.69-.129,1.605,1.605,0,0,1-.634-.391,1.253,1.253,0,0,1-.4-.861,1.581,1.581,0,0,1,.079-.6q.443-1.772.886-3.544c.129-.5.24-1,.368-1.5q.645-2.581,1.29-5.162a7.562,7.562,0,0,0,.2-1.284,9.428,9.428,0,0,0-.024-1,4.29,4.29,0,0,0-.3-1.211,3.363,3.363,0,0,0-.624-1.015,2.43,2.43,0,0,0-.286-.277,1.126,1.126,0,0,0-.135-.12,3.955,3.955,0,0,0-.9-.536,4.624,4.624,0,0,0-.888-.315,5.667,5.667,0,0,0-1.294-.219,4.173,4.173,0,0,0-.591-.021c-.155-.007-.307.034-.462.029a8.243,8.243,0,0,0-2.121.487,9.1,9.1,0,0,0-1.3.6,8.388,8.388,0,0,0-1.413,1.019c-.148.151-.3.3-.448.449a4.252,4.252,0,0,0-.732,1.11c-.185.6-.341,1.213-.511,1.82-.206.785-.418,1.568-.615,2.356-.238.89-.454,1.787-.706,2.674q-.17.558-.344,1.116a2.805,2.805,0,0,1-.193.6,2.314,2.314,0,0,1-1.693,1.277,2.02,2.02,0,0,1-1.453-.24,1.545,1.545,0,0,1-.685-1.107.87.87,0,0,1,0-.406c.588-1.926,1.054-3.885,1.568-5.831.286-1.1.571-2.2.89-3.284a3.762,3.762,0,0,1,.313-.762,8.423,8.423,0,0,1,1.355-1.974c.209-.209.418-.418.627-.627a12.46,12.46,0,0,1,1.023-.82c.181-.149.389-.259.581-.392a12.511,12.511,0,0,1,2.445-1.191c.211-.07.416-.158.633-.214a12.532,12.532,0,0,1,1.379-.337c.361-.076.728-.109,1.093-.159a1.571,1.571,0,0,0,.325-.03Z" transform="translate(-182.756 -248)" fill="#00579c"/>
  </g>
  <path id="path11" d="M155.509,263.689c.128,0,.253-.035.381-.033a2.847,2.847,0,0,1,.979.226,1.385,1.385,0,0,1,.546.452,1.012,1.012,0,0,1,.139.835c-.165.639-.314,1.283-.487,1.919q-.288,1.158-.578,2.314c-.143.587-.3,1.169-.446,1.757-.167.669-.336,1.338-.5,2.008-.144.528-.271,1.061-.4,1.592a7.252,7.252,0,0,0-.279,1.748,1.416,1.416,0,0,0,0,.465,4.512,4.512,0,0,0,.407,1.8,4.144,4.144,0,0,0,.415.66,3.26,3.26,0,0,0,.4.421,4.138,4.138,0,0,0,.516.381,5.535,5.535,0,0,0,.618.328,7.58,7.58,0,0,0,1.473.421,6.408,6.408,0,0,0,1.42.075,8.508,8.508,0,0,0,3.412-.964,8.169,8.169,0,0,0,1.723-1.2,5.654,5.654,0,0,0,.808-.934,2.33,2.33,0,0,0,.352-.671c.625-2.159,1.154-4.343,1.733-6.514.119-.428.262-.849.388-1.276a2.86,2.86,0,0,1,.581-1.082,2.07,2.07,0,0,1,.551-.474,2.349,2.349,0,0,1,1.485-.338,1.95,1.95,0,0,1,.711.211,1.394,1.394,0,0,1,.649.606,1.208,1.208,0,0,1,.08.832c-.39,1.3-.736,2.609-1.071,3.923-.462,1.767-.905,3.54-1.414,5.295a2.863,2.863,0,0,1-.18.459,6.342,6.342,0,0,1-.444.838,8.253,8.253,0,0,1-1,1.329c-.155.194-.345.355-.515.536a12.391,12.391,0,0,1-1.063.881,12.527,12.527,0,0,1-1.87,1.125c-.3.135-.6.28-.91.4-.27.117-.553.2-.829.3-.426.138-.861.244-1.3.342-.166.033-.334.054-.5.089-.254.045-.513.064-.768.1a2.914,2.914,0,0,0-.394.036H159.01a.6.6,0,0,0-.149-.024c-.188,0-.372-.048-.56-.058a9.6,9.6,0,0,1-1.677-.368,9,9,0,0,1-1.762-.747,8.651,8.651,0,0,1-1.15-.8c-.112-.1-.235-.191-.337-.3-.162-.17-.343-.324-.489-.509a7.649,7.649,0,0,1-1.8-3.989c-.041-.232-.047-.469-.088-.7v-1.342a1.7,1.7,0,0,0,.031-.273,11.6,11.6,0,0,1,.347-1.955c.279-1.1.542-2.2.831-3.293q.329-1.321.661-2.643c.207-.773.39-1.554.589-2.33a3.137,3.137,0,0,1,.17-.572,1.946,1.946,0,0,1,.374-.575c.083-.079.159-.164.246-.239A2.4,2.4,0,0,1,155.509,263.689Z" transform="translate(-151 -259.945)" fill="#da251c"/>
</svg>
