<svg id="citi_bank" data-name="citi bank" xmlns="http://www.w3.org/2000/svg" width="37.282" height="24.125" viewBox="0 0 37.282 24.125">
  <path id="Path_1" data-name="Path 1" d="M126.651,26.589a14.752,14.752,0,0,0-24.474,0h3.5a11.915,11.915,0,0,1,17.475,0Z" transform="translate(-89.369 -20.076)" fill="red"/>
  <path id="Path_2" data-name="Path 2" d="M33.934,84.828l-.066.066a5.041,5.041,0,0,1-3.6,1.685,4.8,4.8,0,0,1,0-9.6,5.033,5.033,0,0,1,3.6,1.688l.066.069,1.728-2.093-.045-.053a6.563,6.563,0,0,0-5.268-2.528,7.991,7.991,0,0,0-5.462,2,8.207,8.207,0,0,0,0,11.428A7.97,7.97,0,0,0,30.349,89.5a6.586,6.586,0,0,0,5.268-2.525l.045-.057Z" transform="translate(-22.571 -65.376)" fill="#092869"/>
  <path id="Path_3" data-name="Path 3" d="M114.745,90.536h3.044v-14.9h-3.044Z" transform="translate(-99.914 -66.696)" fill="#092869"/>
  <path id="Path_4" data-name="Path 4" d="M159.625,63.091a4.449,4.449,0,0,1-2.254.748c-.985,0-1.423-.52-1.423-1.684V54.242h3.095V51.434h-3.095V46.793l-2.989,1.6v3.039h-2.574v2.808h2.574V62.66c0,2.293,1.356,3.861,3.378,3.9a4.76,4.76,0,0,0,2.7-.685l.031-.021.735-2.874Z" transform="translate(-129.82 -42.494)" fill="#092869"/>
  <path id="Path_5" data-name="Path 5" d="M223.462,90.536h3.044v-14.9h-3.044Z" transform="translate(-191.139 -66.696)" fill="#092869"/>
</svg>
