<svg xmlns="http://www.w3.org/2000/svg" width="33.308" height="26.811" viewBox="0 0 33.308 26.811">
  <g id="indusind-bank-logo" transform="translate(0)">
    <path id="Path_1" data-name="Path 1" d="M810.854,11.784c9.2,0,16.654,6,16.654,13.4s-7.456,13.4-16.654,13.4-16.654-6-16.654-13.4,7.459-13.4,16.654-13.4" transform="translate(-794.2 -11.784)" fill="#fff" fill-rule="evenodd"/>
    <path id="Path_2" data-name="Path 2" d="M822.826,126.493a17.847,17.847,0,0,1-12.077-5.4h5.4a37.655,37.655,0,0,0,6.679,5.4" transform="translate(-807.509 -99.689)" fill="#1c9ecd" fill-rule="evenodd"/>
    <path id="Path_3" data-name="Path 3" d="M881.145,121.1h6.746a36.612,36.612,0,0,1-6.746,5.338Z" transform="translate(-864.117 -99.687)" fill="#1c9ecd" fill-rule="evenodd"/>
    <path id="Path_4" data-name="Path 4" d="M849.959,126.432a37.475,37.475,0,0,1-6.726-5.338h6.726Z" transform="translate(-833.63 -99.691)" fill="#1c9ecd" fill-rule="evenodd"/>
    <path id="Path_5" data-name="Path 5" d="M898.111,121.1a17.894,17.894,0,0,1-12.029,5.4,37.083,37.083,0,0,0,6.679-5.4Z" transform="translate(-868.087 -99.687)" fill="#1c9ecd" fill-rule="evenodd"/>
    <path id="Path_6" data-name="Path 6" d="M794.208,49.879a11.622,11.622,0,0,1,2.681-6.972h5.147A10.97,10.97,0,0,0,799,49.879Z" transform="translate(-794.206 -36.812)" fill="#1c9ecd" fill-rule="evenodd"/>
    <path id="Path_7" data-name="Path 7" d="M802.286,89h-5.395a11.565,11.565,0,0,1-2.681-6.946h4.8A11.856,11.856,0,0,0,802.275,89" transform="translate(-794.205 -68.294)" fill="#1c9ecd" fill-rule="evenodd"/>
    <path id="Path_8" data-name="Path 8" d="M931.4,82.059a11.559,11.559,0,0,1-2.674,6.948h-5.338a11.827,11.827,0,0,0,3.239-6.948Z" transform="translate(-898.095 -68.296)" fill="#1c9ecd" fill-rule="evenodd"/>
    <path id="Path_9" data-name="Path 9" d="M929.746,42.907a11.6,11.6,0,0,1,2.674,6.975h-4.744a11.057,11.057,0,0,0-3.013-6.975Z" transform="translate(-899.112 -36.812)" fill="#1c9ecd" fill-rule="evenodd"/>
    <path id="Path_10" data-name="Path 10" d="M886.2,11.784a17.851,17.851,0,0,1,12,5.4h-5.1a34.729,34.729,0,0,0-6.9-5.4" transform="translate(-868.186 -11.784)" fill="#1c9ecd" fill-rule="evenodd"/>
    <path id="Path_11" data-name="Path 11" d="M816.143,17.18h-5.174a17.933,17.933,0,0,1,12.081-5.4,33.467,33.467,0,0,0-6.907,5.4" transform="translate(-807.684 -11.782)" fill="#1c9ecd" fill-rule="evenodd"/>
    <path id="Path_12" data-name="Path 12" d="M849.145,17.459h-6.923a34.391,34.391,0,0,1,6.923-5.338Z" transform="translate(-832.816 -12.061)" fill="#1c9ecd" fill-rule="evenodd"/>
    <path id="Path_13" data-name="Path 13" d="M881.145,12.125a34.65,34.65,0,0,1,6.948,5.338h-6.948Z" transform="translate(-864.117 -12.058)" fill="#1c9ecd" fill-rule="evenodd"/>
    <path id="Path_14" data-name="Path 14" d="M898.132,81.922l.065.108.024.183v.2c-.012.517-.264.725-.74.861h-.172l-.024-.022-.047-.022-.043-.045-.024-.047v-.045l-.024-.065v-.071l.024-.043v-.045l.045-.046.022-.043.093-.11.066-.026.093-.021.089-.067.112-.069.021-.019.022-.048.024-.064.022-.071-.022-.067-.024-.115-.043-.084-.069-.136-.2-.313c-.306-.675.143-.675-.086-1.262l-.067-.172-.136-.2-.246-.36-.205-.293-.065-.136-.067-.11a3.276,3.276,0,0,1,.11-1.641v-.474l-.022-.2v-.045l.022-.069.022-.021.024-.022h.021l.024.022.023.021.022.022.046.158V76.9l.047.158v.226l-.026.267a1.655,1.655,0,0,0,.453,1.848l.109.088.093.071c.493.532.32.806.315,1.414v.172l.067.2.046.172.091.2Z" transform="translate(-876.426 -63.862)" fill="#fff" fill-rule="evenodd"/>
    <path id="Path_15" data-name="Path 15" d="M901.721,83.416v.134l.022.117c.079.792.887,1.088,1.346,1.612l.093.16.047.172c.143.415.026,1.341-.563,1.3l-.048-.022-.021-.017.021-.024.026-.022a1.262,1.262,0,0,0-.048-1.62l-.134-.157L902.3,84.9l-.181-.134a1.379,1.379,0,0,1-.36-.563l-.043-.136-.043-.112a2.443,2.443,0,0,1-.046-.789l.021-.047.024-.019h.021l.024.043v.045l.022.091Z" transform="translate(-880.578 -69.135)" fill="#fff" fill-rule="evenodd"/>
    <path id="Path_16" data-name="Path 16" d="M892.763,90.958l-.046.091v.114c-.188.709.443,1.193.7,1.775l.021.155v.157c-.031.394-.344,1.159-.878.969l-.021-.022-.024-.026.024-.019v-.024h.045l.065-.045a1.166,1.166,0,0,0,.269-1.5l-.088-.172-.091-.207-.066-.088L892.623,92l-.022-.114-.021-.133V91.28l.043-.2.048-.172.043-.134.023-.071.045-.022h.046v.093l-.021.09Z" transform="translate(-873.261 -75.216)" fill="#fff" fill-rule="evenodd"/>
    <path id="Path_17" data-name="Path 17" d="M892.763,90.958l-.046.091v.114c-.188.709.443,1.193.7,1.775l.021.155v.157c-.031.394-.344,1.159-.878.969l-.021-.022-.024-.026.024-.019v-.024h.045l.065-.045a1.166,1.166,0,0,0,.269-1.5l-.088-.172-.091-.207-.066-.088L892.623,92l-.022-.114-.021-.133V91.28l.043-.2.048-.172.043-.134.023-.071.045-.022h.046v.093l-.021.09Z" transform="translate(-873.261 -75.216)" fill="none" stroke="#fff" stroke-miterlimit="2.414" stroke-width="0.418"/>
    <path id="Path_18" data-name="Path 18" d="M851.7,52.887l-.269-.4-.115-.16-.043-.112c-.026-.449.05-.27.091-.541v-.045l-.048-.091c-.146-.272-.623-.587-.787-.876l-.089-.2-.069-.2-.046-.112v-.112l-.021-.112V49.8l.021-.114.026-.091.046-.114.043-.067.089-.064.091-.069.067-.05h.067l.11-.041.047-.022h.046l.045-.045.045-.041.045-.091.069-.162.019-.041.024-.05h.045l.045-.022.182.022V48.7l-.027-.072a4.354,4.354,0,0,1-.673-2.426v-.172l.045-.2.043-.2.071-.172.067-.2.112-.172.112-.172.138-.2.114-.172.086-.157.024-.067.021-.067v-.105l-.021-.045-.024-.024-.043-.022h-.024l-.046.022h-.066l-.158.09-.134.091-.112.091-.115.112-.133.091-.09.11-.088.112-.091.114-.064.136-.162.243a4.059,4.059,0,0,0-.313,2.139v.114H849.9l-.024-.022-.172-.157-.2-.136c-1.273-.72-3.032-.155-2.784,1.526l.009.065.071.155.066.139.045.086v.043l-.023.047-.048.093-.064.04-.091.071-.091.043-.089.046-.157.045-.047.026h-.022l-.022.019h-.024l-.155.046-.205.045-.172.022h-.2l-.2.024-.226-.024-.225-.022-.227-.022-.472-.069-.492-.09-.99-.248-.5-.091-.493-.11-.5-.067-.246-.024c-2.159-.344-3.261,1.066-3.06,3.1l.157,1.033.136.851.045.382a13.2,13.2,0,0,1-.181,2.541v.344l.023.288c.026.258.146.7.427.344l.045-.088.026-.117.045-.134.045-.313.021-.269v-.136l.048-.474c.27-1.958-1.512-5.241.358-6.407l.155-.093.227-.064.269-.046a2.531,2.531,0,0,1,1.756.356l.224.138.251.155a5.462,5.462,0,0,0,3.034.746h.358l.345-.022.315-.022.269-.022.246-.046.224-.043a1.612,1.612,0,0,1,1.033-.138l.133.091.138.09.112.114.089.112.091.157.045.134.065.134.046.136.045.139.024.133v.172l-.024.133-.022.138-.069.244-.04.024-.048.043a1.9,1.9,0,0,0-.517,1.216l-.046.272v.11l-.043.091-.026.09-.043.067-.046.072-.067.017-.069.046-.043.05-.134.045h-.136l-.112.022h-.114l-.114-.022h-.129l-.229-.067-.172-.072-.045-.017.022.312.069.25.047.134.064.088.045.093.045.043.022.043.023.048.024.155.045.248a10.053,10.053,0,0,1,.046,1.484l-.024.2-.021.112.047.026.129.065.048.041.067.048.024.069.022.045V58.3l.043.043h1.126v-.065l-.023-.069-.024-.071-.045-.04-.065-.115-.091-.09-.172-.136-.069-.043-.022-.048-.024-.021-.021-.046-.04-.026v-.09l.043-.11.136.019h.112l.225.026h.4l.022.289-.022.2v.134l.046.019c.1.081.25.143.248.294l.021.043h1.123v-.086l-.023-.091-.045-.071-.069-.064-.11-.136-.114-.09-.045-.043-.045-.077-.066-.069-.022-.067V57.45l.046-.138.2.157.134.071.047.019a1.417,1.417,0,0,0,.968,0l.172-.09.181-.11c.37-.241.38-.6.537-.992l.047-.067.021-.045.045-.045a1.526,1.526,0,0,0,.584-2.448l-.114-.162-.2-.269Z" transform="translate(-829.294 -37.728)" fill="#98272b" fill-rule="evenodd"/>
    <path id="Path_19" data-name="Path 19" d="M906.245,74.914l.064.072.048.065.019.069v.358l.045-.067.047-.088.067-.091.045-.112.022-.134v-.048l-.022-.067v-.043l-.021-.048-.045-.043c-.095-.031-.434-.26-.541-.114v.09l-.022.093Z" transform="translate(-884.063 -62.277)" fill="#98272b" fill-rule="evenodd"/>
    <path id="Path_20" data-name="Path 20" d="M906.245,74.914l.064.072.048.065.019.069v.358l.045-.067.047-.088.067-.091.045-.112.022-.134v-.048l-.022-.067v-.043l-.021-.048-.045-.043c-.095-.031-.434-.26-.541-.114v.09l-.022.093Z" transform="translate(-884.063 -62.277)" fill="none" stroke="#9a292d" stroke-miterlimit="2.414" stroke-width="0.21"/>
    <path id="Path_21" data-name="Path 21" d="M898.311,81.82l.045.067.023.114.022.09.026.09v.112l-.026.091-.022.091-.023.11-.045.114-.069.134-.088.11-.114.114c-.253.076-.158.172-.5.16l-.067-.026-.067-.043-.045-.045-.043-.067-.026-.091.026-.065.021-.071.022-.064.045-.069.067-.067.091-.045.157-.09.067-.026.043-.065.046-.045.022-.067.024-.048v-.134l-.024-.067-.047-.136-.065-.136-.133-.244-.071-.09a.889.889,0,0,1-.091-.68l.046-.133.024-.069a1.186,1.186,0,0,0-.2-.689l-.1-.136-.172-.25-.181-.291c-.627-.806.039-1.71-.091-2.788l.024-.022.021-.024.024-.024.045.048.022.043c.37.852-.4,1.774.293,2.564l.067.071.136.133c1,.8.37,1.262.606,2l.067.226.091.2Z" transform="translate(-876.56 -63.673)" fill="#fff" fill-rule="evenodd"/>
    <path id="Path_22" data-name="Path 22" d="M902.613,83.41v.226l.022.112c.315,1.033,1,.956,1.328,1.526l.088.16.069.172c.114.413.048,1.25-.516,1.3h-.043l-.045-.022-.024-.017v-.024a1.069,1.069,0,0,0,.2-1.285l-.09-.172-.131-.172c-.644-.764-.914-.647-.969-1.842v-.227l.022-.043h.043l.022.019.024.046v.248Z" transform="translate(-881.292 -69.129)" fill="#fff" fill-rule="evenodd"/>
    <path id="Path_23" data-name="Path 23" d="M913.2,47.33l-.045-.09-.067-.133-.045-.024-.021-.045h-.07l-.021.021v.024l-.022.09.022.112v.136l.043.293.048.269.021.246v.427l-.021.207-.048.172-.022.172-.021.133a2.441,2.441,0,0,1-1.259,1.417l-.274.115-.293.091.293.246.251.2c.4.441.842,1.173.344,1.71l-.158.226-.069.134-.067.138-.043.153-.048.158-.066.344-.048.313-.041.158-.022.065-.026.048-.021.022-.022.021-.065.026h-.046l-.069-.026h-.022l-.045.026v.022c.015.129.086.451.248.449h.022v-.024h.021l.048-.064.017-.115.072-.2.045-.2.069-.408L911.7,54v-.05l.067-.131.091-.114.09-.112.091-.09.2-.181.134-.155.114-.138.112-.158.047-.091.045-.088.026-.091v-.055l-.026-.088-.022-.117-.069-.293-.157-.474.172-.222.024-.045a4.476,4.476,0,0,0,.831-1.4l.068-.172.046-.2a2.793,2.793,0,0,0-.046-1.377l-.067-.172-.112-.317Z" transform="translate(-888.211 -40.134)" fill="#98272b" fill-rule="evenodd"/>
    <path id="Path_24" data-name="Path 24" d="M913.2,47.33l-.045-.09-.067-.133-.045-.024-.021-.045h-.07l-.021.021v.024l-.022.09.022.112v.136l.043.293.048.269.021.246v.427l-.021.207-.048.172-.022.172-.021.133a2.441,2.441,0,0,1-1.259,1.417l-.274.115-.293.091.293.246.251.2c.4.441.842,1.173.344,1.71l-.158.226-.069.134-.067.138-.043.153-.048.158-.066.344-.048.313-.041.158-.022.065-.026.048-.021.022-.022.021-.065.026h-.046l-.069-.026h-.022l-.045.026v.022c.015.129.086.451.248.449h.022v-.024h.021l.048-.064.017-.115.072-.2.045-.2.069-.408L911.7,54v-.05l.067-.131.091-.114.09-.112.091-.09.2-.181.134-.155.114-.138.112-.158.047-.091.045-.088.026-.091v-.055l-.026-.088-.022-.117-.069-.293-.157-.474.172-.222.024-.045a4.488,4.488,0,0,0,.9-1.577l.046-.2.022-.172a2.583,2.583,0,0,0-.136-1.377l-.112-.317Z" transform="translate(-888.211 -40.134)" fill="none" stroke="#9a292d" stroke-miterlimit="2.414" stroke-width="0.63"/>
    <path id="Path_25" data-name="Path 25" d="M893.551,90.854l-.046.155-.022.16v.158c.019.734.57,1.014.74,1.641v.155c0,.391-.227.978-.672,1.057h-.136l-.046-.021-.043-.045v-.024l.021-.021.022-.021.091-.048.064-.041.045-.05.069-.064.043-.048.047-.065.067-.136.045-.158.024-.136v-.334c-.184-.689-.749-1.316-.429-2.066l.069-.226.047-.069v-.022l.043-.021h.023l.024.043-.024.024V90.7l-.047.114Z" transform="translate(-873.913 -75.134)" fill="#fff" fill-rule="evenodd"/>
    <path id="Path_26" data-name="Path 26" d="M893.551,90.854l-.046.155-.022.16v.158c.019.734.57,1.014.74,1.641v.155c0,.391-.227.978-.672,1.057h-.136l-.046-.021-.043-.045v-.024l.021-.021.022-.021.091-.048.064-.041.045-.05.069-.064.043-.048.047-.065.067-.136.045-.158.024-.136v-.334c-.184-.689-.749-1.316-.429-2.066l.069-.226.047-.069v-.022l.043-.021h.023l.024.043-.024.024V90.7l-.047.114Z" transform="translate(-873.913 -75.134)" fill="none" stroke="#fff" stroke-miterlimit="2.414" stroke-width="0.42"/>
    <path id="Path_27" data-name="Path 27" d="M857.036,104.865l-.091-.112-.069-.086-.043-.114a.92.92,0,0,1,.019-.744l.046-.112.045-.065.069-.067.067-.072.067-.041.069-.046.112-.067.024-.022.045-.024.022-.069.022-.065v-.064L857.4,103l-.069-.086c-.224-.114-.172-.134-.475-.024l-.134.11-.158.157c-.833,1.092-.537.658-.537,1.78v.112l-.022.112v.022l.045.024.134.067.069.043.045.048.045.041v.072l.022.041.021.024h1.171l-.022-.043a.775.775,0,0,0-.293-.474l-.091-.071Z" transform="translate(-843.874 -84.985)" fill="#98272b" fill-rule="evenodd"/>
    <path id="Path_28" data-name="Path 28" d="M850.483,87.778l-.043.046-.114.09a.546.546,0,0,1-.382.158l-.133-.024-.113-.067a4.214,4.214,0,0,0-.785-.222l-.248-.114-.384-.136.091-.315.069-.224.065-.224c.222-.783-.654-1.445-1.233-1.78l-.091-.045-.091-.024c-.642-.214-.656.625-.472,1.016l.09.269.069.243.045.226.021.224a2.03,2.03,0,0,1-.787,1.663l-.067.024-.138.021-.136.026c-.2.059-.138-.047-.344.136l-.046.064-.021.069a6.421,6.421,0,0,0,0,1.173l.021.4v.293l-.021.134.067.024c.541.272.023.374.675.344l.811-.026-.024-.088-.021-.065-.045-.095-.069-.065-.11-.134-.115-.136-.172-.157-.091-.093-.022-.065-.043-.09-.026-.091v-.2l.045-.045.024-.091.022-.088.136-.224.043-.09.071-.093.047-.045.043-.045.291-.067.226-.112.227-.114.172-.091.157-.133.138-.115.224-.224.089-.172.091-.134.045-.067.043-.045.069-.045.091-.026h.067l.27.114.429.172.224.093.11.047.091.04.089.072.091.041h.091l.064.028h.069l.045-.028.045-.022.046-.041.067-.09.136-.139.131-.172.134-.2Z" transform="translate(-835.28 -70.551)" fill="#98272b" fill-rule="evenodd"/>
  </g>
</svg>
