<svg id="federal_bank" data-name="federal bank" xmlns="http://www.w3.org/2000/svg" width="41.711" height="13.498" viewBox="0 0 41.711 13.498">
  <path id="Path_1" data-name="Path 1" d="M273,386h41.711v13.333H273V386Z" transform="translate(-273 -386)" fill="#0e3192" fill-rule="evenodd"/>
  <path id="Path_2" data-name="Path 2" d="M273,403.457h41.711v2.255H273v-2.255Z" transform="translate(-273 -392.214)" fill="#f60" fill-rule="evenodd"/>
  <path id="Path_3" data-name="Path 3" d="M323.335,393.266h.388c.066,0,.134,0,.2,0,.027,0,.074,0,.1,0l.08-.019c.026-.027.31-2.12.363-2.532a.342.342,0,0,1,.045-.163c.579.633,1.423,1.437,2.036,2.068l.672.694a2.258,2.258,0,0,0,.095-.5l.224-1.528c.1-.67.227-1.384.3-2.052H327s-.307,2.333-.341,2.421c-.018.04,0,.019-.026.044l-.848-.819c-.071-.064-.1-.1-.169-.174-.11-.115-.24-.216-.358-.327-.058-.055-.1-.108-.158-.164l-.178-.164-.686-.663c-.1-.113-.243-.211-.349-.322l-.555,4.193Z" transform="translate(-290.917 -387.094)" fill="#fff" fill-rule="evenodd"/>
  <path id="Path_4" data-name="Path 4" d="M313.039,392.737l.162-1.163a1.217,1.217,0,0,1,.748.118.5.5,0,0,1,.281.545.53.53,0,0,1-.405.458,2.019,2.019,0,0,1-.787.042Zm.405-2.822c.419,0,.835.122.745.608a.533.533,0,0,1-.3.36,1.19,1.19,0,0,1-.6.093l.156-1.061Zm-1.334,3.45a4.909,4.909,0,0,0,2.48-.307,1.01,1.01,0,0,0,.217-1.457.736.736,0,0,0-.163-.18.887.887,0,0,1-.2-.178,1,1,0,0,0,.448-1.174.882.882,0,0,0-.238-.366,1.306,1.306,0,0,0-.814-.353,11.71,11.71,0,0,0-1.179-.013l-.549,4.029Z" transform="translate(-286.922 -387.184)" fill="#fff" fill-rule="evenodd"/>
  <path id="Path_5" data-name="Path 5" d="M284.606,392.73c0-.141.35-2.664.381-2.737.61,0,.941-.059,1.329.3a1.343,1.343,0,0,1,.375,1.24,1.386,1.386,0,0,1-1.29,1.189,5.136,5.136,0,0,1-.795.006Zm-.889.633a7.655,7.655,0,0,0,2.534-.2,1.991,1.991,0,0,0,1.159-1.574,1.667,1.667,0,0,0-.131-1.15,1.814,1.814,0,0,0-.631-.738,4.167,4.167,0,0,0-2.382-.368l-.549,4.027Z" transform="translate(-276.815 -387.186)" fill="#fff" fill-rule="evenodd"/>
  <path id="Path_6" data-name="Path 6" d="M295.238,390a.289.289,0,0,1,.169-.035,1.235,1.235,0,0,1,.528.072.446.446,0,0,1,.2.551c-.1.473-.522.526-1.05.511l.149-1.1Zm-1.284,3.368h.824l.169-1.251c.01-.072.019-.14.029-.212a.392.392,0,0,1,.048-.2c.144.009.178.161.315.375.085.136.76,1.273.812,1.288h.808a4.262,4.262,0,0,0-.253-.442l-.764-1.3a1.146,1.146,0,0,0-.037-2.268,10.1,10.1,0,0,0-1.4-.015l-.557,4.023Z" transform="translate(-280.459 -387.185)" fill="#fff" fill-rule="evenodd"/>
  <path id="Path_7" data-name="Path 7" d="M330.243,393.367h.837l.184-1.34c.038-.281.006-.2.146-.377.1.043,1.1,1.284,1.275,1.474a1.308,1.308,0,0,1,.178.225l.95,0c-.032-.08-1.22-1.559-1.331-1.7l-.439-.565c.057-.078,1.327-1.23,1.515-1.42.1-.1.214-.177.354-.329a6.181,6.181,0,0,0-.93.014c-.013.006-.479.424-.509.456a.974.974,0,0,1-.126.115c-.171.138-.781.734-.9.8l.187-1.382-.8-.008c-.057.017-.046.109-.062.225l-.106.763c-.133.936-.326,2.159-.421,3.045Z" transform="translate(-293.376 -387.186)" fill="#fff" fill-rule="evenodd"/>
  <path id="Path_8" data-name="Path 8" d="M300.681,391.771c.091-.17.209-.328.315-.5a3.755,3.755,0,0,1,.334-.5l.3,1.015-.954-.008Zm-1.877,1.508h.919l.541-.853,1.571,0,.291.864h.814c-.028-.121-1.32-4.02-1.4-4.183a2.743,2.743,0,0,0-.168.243l-2.232,3.406a4.935,4.935,0,0,0-.335.527Z" transform="translate(-282.185 -387.105)" fill="#fff" fill-rule="evenodd"/>
  <path id="Path_9" data-name="Path 9" d="M318.288,391.769c.1-.16.215-.339.32-.509l.328-.5.307,1.02-.955-.01Zm-1.877,1.511h.919c.08-.145.184-.295.278-.445.051-.079.09-.14.14-.221.041-.064.095-.191.169-.191h1.526l.263.862h.84l-1.392-4.179c-.085.083-2.21,3.341-2.409,3.649l-.333.521Z" transform="translate(-288.453 -387.107)" fill="#fff" fill-rule="evenodd"/>
  <path id="Path_10" data-name="Path 10" d="M289.4,393.359l2.4-.012.081-.625h-1.6l.157-1.154h1.61l.1-.669-1.6,0,.129-.912h1.609l.093-.653-2.429,0-.555,4.024Z" transform="translate(-278.839 -387.186)" fill="#fff" fill-rule="evenodd"/>
  <path id="Path_11" data-name="Path 11" d="M279.189,393.367l2.4-.008.081-.634-1.6,0,.159-1.152h1.208a1.38,1.38,0,0,0,.4-.021l.1-.649-1.594,0,.125-.908,1.611,0,.09-.653-2.43,0-.554,4.031Z" transform="translate(-275.203 -387.186)" fill="#fff" fill-rule="evenodd"/>
  <path id="Path_12" data-name="Path 12" d="M275.06,393.348h.778c.052-.034.022.015.044-.08l.052-.351c.041-.266.165-1.229.214-1.355h1.365l.122-.662h-1.4a8.249,8.249,0,0,1,.13-.909h1.395l.075-.656-2.2,0-.576,4.018Z" transform="translate(-273.733 -387.185)" fill="#fff" fill-rule="evenodd"/>
  <path id="Path_13" data-name="Path 13" d="M305.492,393.355l2.2,0,.082-.638h-1.357l.428-3.382-.781.005-.571,4.011Z" transform="translate(-284.566 -387.188)" fill="#fff" fill-rule="evenodd"/>
  <path id="Path_14" data-name="Path 14" d="M275.43,399.156h0q-.107-.168-.26-.393l-.15-.215c-.068-.1-.118-.164-.143-.2a.737.737,0,0,0-.051-.064c.043,0,.092.005.148.005s.1,0,.148-.005a.8.8,0,0,0,.051.111c.019.035.049.086.091.153l.09.145c.079.125.149.231.211.321h0c.062-.086.126-.185.2-.3l.1-.164a1.447,1.447,0,0,0,.084-.14.905.905,0,0,0,.056-.124,1.077,1.077,0,0,0,.21,0,.661.661,0,0,0-.05.064c-.027.037-.075.1-.144.2l-.139.2c-.094.137-.175.26-.243.365h0v.122c0,.166,0,.282,0,.353a1.468,1.468,0,0,0,.014.176c-.035,0-.076,0-.122,0s-.086,0-.123,0a1.414,1.414,0,0,0,.016-.176c0-.071,0-.187,0-.353v-.078Zm1.814.632a.946.946,0,0,1-.636-.206.659.659,0,0,1-.245-.533.722.722,0,0,1,.252-.57,1.1,1.1,0,0,1,1.294-.015.663.663,0,0,1,.243.534.723.723,0,0,1-.251.571.974.974,0,0,1-.658.218Zm.012-.095a.619.619,0,0,0,.473-.187.7.7,0,0,0,.176-.5.645.645,0,0,0-.176-.475.638.638,0,0,0-.473-.178.618.618,0,0,0-.47.188.7.7,0,0,0-.175.5.643.643,0,0,0,.175.473.63.63,0,0,0,.47.178Zm2.628-.576a.656.656,0,0,1-.176.5.7.7,0,0,1-.513.173.751.751,0,0,1-.509-.147.574.574,0,0,1-.167-.449v-.643c0-.087,0-.147-.005-.182a.613.613,0,0,0-.009-.082,1.183,1.183,0,0,0,.122.005,1.2,1.2,0,0,0,.124-.005.49.49,0,0,0-.012.083c0,.035,0,.095-.008.181,0,.145-.006.307-.006.49v.088a.6.6,0,0,0,.126.414.611.611,0,0,0,.779-.008.665.665,0,0,0,.123-.45v-.533c0-.09,0-.152-.005-.187a.478.478,0,0,0-.006-.077.745.745,0,0,0,.175,0,.828.828,0,0,0-.014.09c0,.036,0,.095-.008.174,0,.145-.007.307-.007.49v.079Zm.464.381c0-.141.005-.3.005-.475s0-.334-.005-.475c0-.091-.007-.155-.008-.191a.439.439,0,0,0-.007-.073c.074,0,.136,0,.188.006s.089,0,.116,0h0l.121-.005h.1a.715.715,0,0,1,.4.088.289.289,0,0,1,.133.26.332.332,0,0,1-.2.292.853.853,0,0,1-.3.1h0c.08.1.178.206.29.332l.131.142.186.2c.035.035.057.057.066.064-.046,0-.094,0-.151,0s-.106,0-.149,0a.706.706,0,0,0-.074-.105c-.026-.035-.073-.088-.137-.16l-.135-.153c-.1-.119-.2-.221-.28-.308h-.08c0,.171,0,.324.005.46,0,.093.005.156.008.19a.573.573,0,0,0,.006.075c-.035,0-.075,0-.121,0s-.087,0-.122,0a.431.431,0,0,0,.007-.074c0-.034,0-.1.008-.191Zm.207-.555h0c.035,0,.073,0,.111,0a.655.655,0,0,0,.351-.08.246.246,0,0,0,.132-.218.217.217,0,0,0-.1-.193.528.528,0,0,0-.292-.068q-.111,0-.2.008h0v.554Zm1.922.555c0-.141.005-.3.005-.475s0-.33-.005-.47c0-.093-.006-.156-.006-.19a.439.439,0,0,0-.008-.075l.162,0,.119,0h0l.117-.005h.1a.805.805,0,0,1,.431.091.313.313,0,0,1,.142.282.367.367,0,0,1-.167.318.825.825,0,0,1-.466.113,1.58,1.58,0,0,1-.21-.011h0c0,.156,0,.3,0,.421,0,.093.006.158.008.192a.423.423,0,0,0,.007.073c-.036,0-.077,0-.122,0s-.087,0-.122,0a.453.453,0,0,0,.008-.075c0-.035,0-.1.006-.19Zm.209-.518h0c.048,0,.1.006.16.006a.538.538,0,0,0,.325-.089.266.266,0,0,0,.121-.229.241.241,0,0,0-.1-.209.549.549,0,0,0-.3-.07c-.077,0-.147,0-.207.008h0v.582Zm1.077.794c0-.013,0-.038.006-.074s.005-.1.008-.19c0-.144,0-.307,0-.486s0-.343,0-.487c0-.091-.006-.155-.008-.19s0-.059-.006-.074a.819.819,0,0,0,.141.012c.066,0,.133.005.2.005h.183c.072,0,.138,0,.2,0a1.044,1.044,0,0,0,.15-.014.3.3,0,0,0-.007.075.272.272,0,0,0,.007.072,1.239,1.239,0,0,0-.145-.014c-.068,0-.137-.006-.2-.006H284.2c-.074,0-.142,0-.206,0h0l-.007.539h.212c.07,0,.143,0,.218-.005a1.209,1.209,0,0,0,.152-.014.413.413,0,0,0-.008.073.381.381,0,0,0,.008.072,1.408,1.408,0,0,0-.152-.014c-.075,0-.147-.006-.218-.006h-.211c0,.232,0,.432.006.6h0l.161,0h.08c.072,0,.149,0,.227-.008a1.093,1.093,0,0,0,.168-.015.3.3,0,0,0-.007.076.293.293,0,0,0,.007.073c-.033-.006-.086-.009-.155-.013s-.133,0-.191,0H284.1c-.062,0-.126,0-.192,0s-.115.008-.148.012Zm1.252-.276c0-.141.006-.3.006-.475s0-.334-.006-.475q0-.136-.006-.191c0-.034-.005-.059-.008-.073.074,0,.137,0,.187.006s.09,0,.118,0h0l.12-.005h.1a.708.708,0,0,1,.4.088.289.289,0,0,1,.133.26.332.332,0,0,1-.2.292.855.855,0,0,1-.3.1h0c.081.1.176.206.29.332l.129.142.189.2c.034.035.055.057.064.064-.043,0-.093,0-.149,0s-.106,0-.15,0a.726.726,0,0,0-.075-.105c-.027-.035-.072-.088-.136-.16l-.136-.153c-.1-.119-.2-.221-.278-.308h-.082q0,.256.006.46c0,.093.006.156.008.19a.555.555,0,0,0,.006.075c-.035,0-.076,0-.122,0s-.086,0-.122,0a.7.7,0,0,0,.008-.074c0-.034,0-.1.006-.191Zm.207-.555h0c.036,0,.073,0,.112,0a.668.668,0,0,0,.353-.08.248.248,0,0,0,.13-.218.215.215,0,0,0-.1-.193.521.521,0,0,0-.29-.068c-.075,0-.141,0-.2.008h0v.554Zm1.228.555c0-.141.005-.3.005-.48s0-.339-.005-.482c0-.09-.005-.155-.006-.19a.435.435,0,0,0-.008-.074.978.978,0,0,0,.16.012c.077,0,.157.005.241.005h.146c.073,0,.138,0,.2,0a1.082,1.082,0,0,0,.151-.014.33.33,0,0,0-.008.075.3.3,0,0,0,.008.072,1.245,1.245,0,0,0-.143-.014c-.07,0-.138-.006-.2-.006h-.1c-.079,0-.151,0-.219,0h0q-.007.226-.008.528h0l.245,0c.072,0,.146,0,.22,0a.981.981,0,0,0,.149-.014.471.471,0,0,0-.008.072.452.452,0,0,0,.008.071c-.02,0-.066-.007-.14-.009s-.152-.006-.23-.008l-.245,0h0q0,.262,0,.468c0,.093.007.158.008.192a.359.359,0,0,0,.008.073c-.037,0-.077,0-.123,0s-.087,0-.122,0a.428.428,0,0,0,.008-.075c0-.035,0-.1.006-.19Zm1.181.276c0-.013,0-.038.007-.074s0-.1.008-.19c0-.144.006-.307.006-.486s0-.343-.006-.487c0-.091-.006-.155-.008-.19s-.005-.059-.007-.074a.836.836,0,0,0,.142.012c.065,0,.133.005.2.005h.183c.072,0,.138,0,.2,0a1.044,1.044,0,0,0,.15-.014.423.423,0,0,0-.007.075.381.381,0,0,0,.007.072,1.224,1.224,0,0,0-.144-.014c-.069,0-.137-.006-.2-.006h-.084c-.074,0-.143,0-.207,0h0l-.006.539h.212c.07,0,.143,0,.217-.005a1.171,1.171,0,0,0,.153-.014.363.363,0,0,0-.006.073.34.34,0,0,0,.006.072,1.358,1.358,0,0,0-.153-.014c-.074,0-.148-.006-.217-.006h-.212c0,.232,0,.432.006.6h0l.162,0h.08c.071,0,.149,0,.228-.008a1.09,1.09,0,0,0,.167-.015.426.426,0,0,0-.007.076.419.419,0,0,0,.007.073c-.033-.006-.086-.009-.155-.013s-.131,0-.19,0h-.183c-.063,0-.127,0-.192,0s-.115.008-.149.012Zm2.536-.232c-.005.024-.009.045-.013.063a.486.486,0,0,0-.007.064,1.168,1.168,0,0,1-.255.09,1.406,1.406,0,0,1-.292.029.875.875,0,0,1-.6-.206.673.673,0,0,1-.232-.533.724.724,0,0,1,.246-.571.93.93,0,0,1,.643-.218,1.548,1.548,0,0,1,.282.023,1.64,1.64,0,0,1,.259.071c-.012.035-.022.064-.029.09a.7.7,0,0,0-.026.091H290.1a.572.572,0,0,0-.2-.133.663.663,0,0,0-.714.138.7.7,0,0,0-.177.5.635.635,0,0,0,.179.467.6.6,0,0,0,.453.184.83.83,0,0,0,.28-.047.643.643,0,0,0,.225-.127l.02.023Zm.668-.044q0-.212,0-.475c0-.244,0-.453-.009-.629H290.7c-.077,0-.156,0-.236.005a1.581,1.581,0,0,0-.158.014.469.469,0,0,0,.007-.07.445.445,0,0,0-.007-.072c.088.006.187.01.3.012s.2.006.255.006h.125c.064,0,.153,0,.262-.006s.209-.006.292-.012a.293.293,0,0,0-.008.072.3.3,0,0,0,.008.07c-.029-.005-.084-.009-.164-.014s-.157-.005-.234-.005h-.089q-.009.262-.009.628c0,.175,0,.335,0,.475,0,.093.006.156.008.19a.441.441,0,0,0,.008.075c-.037,0-.077,0-.122,0s-.086,0-.124,0a.4.4,0,0,0,.009-.075l.008-.19Zm1.655,0c0-.141,0-.3,0-.475s0-.334,0-.475q-.006-.136-.008-.191a.416.416,0,0,0-.01-.073l.118.005h0l.344-.005a.879.879,0,0,1,.427.081.259.259,0,0,1,.143.241.311.311,0,0,1-.173.272.641.641,0,0,1-.216.083h0a.732.732,0,0,1,.284.088.322.322,0,0,1,.159.293.343.343,0,0,1-.185.3.865.865,0,0,1-.479.117l-.3,0h0l-.118,0a.356.356,0,0,0,.01-.074c0-.034,0-.1.008-.191Zm.208-1.089v.513h.147a.543.543,0,0,0,.309-.078.232.232,0,0,0,.115-.2.2.2,0,0,0-.106-.179.521.521,0,0,0-.283-.066.968.968,0,0,0-.182.013Zm0,.621v.612h0a1.193,1.193,0,0,0,.147.01.64.64,0,0,0,.357-.084.281.281,0,0,0,.121-.249.234.234,0,0,0-.119-.214.649.649,0,0,0-.346-.075Zm1.208.468c.075-.138.156-.3.244-.468.149-.293.266-.539.355-.741h.058c.088.2.2.444.349.739.085.173.162.331.234.47l.139.265c-.039,0-.083,0-.133,0s-.093,0-.132,0a.836.836,0,0,0-.036-.108c-.013-.035-.036-.087-.069-.156l-.134-.287h0a2.6,2.6,0,0,0-.3-.018,1.412,1.412,0,0,0-.3.018h0c-.051.1-.095.2-.134.287a1.5,1.5,0,0,0-.064.147c-.013.036-.026.075-.038.118a.838.838,0,0,0-.1,0,.879.879,0,0,0-.1,0c.007-.01.023-.033.043-.068l.111-.2Zm.577-.9c-.067.126-.138.267-.213.425l-.026.053h0a1.579,1.579,0,0,0,.235.014c.084,0,.162-.006.235-.014h0l-.024-.05-.207-.428Zm1.231.9c0,.09,0,.153.009.187a.443.443,0,0,0,.007.078.778.778,0,0,0-.167,0,.4.4,0,0,0,.007-.075c0-.034,0-.1.007-.19,0-.141.005-.3.005-.475s0-.331-.005-.469c0-.093-.005-.156-.007-.19a.407.407,0,0,0-.007-.075h.071c.2.206.466.46.786.76l.4.367h0v-.377c0-.181,0-.345,0-.491,0-.091-.006-.155-.009-.191a.427.427,0,0,0-.008-.073.691.691,0,0,0,.168,0,.582.582,0,0,0-.008.073q0,.055-.008.191c0,.145-.006.307-.006.49,0,.3,0,.549.013.75h-.066c-.2-.209-.467-.462-.786-.76l-.4-.372h0v.366c0,.176,0,.336.01.475Zm1.926,0c0,.093.005.156.007.19a.424.424,0,0,0,.008.075c-.035,0-.078,0-.122,0s-.086,0-.124,0a.344.344,0,0,0,.008-.073c0-.033.005-.1.008-.191,0-.141,0-.3,0-.475s0-.334,0-.475c0-.091-.006-.155-.008-.191a.364.364,0,0,0-.008-.073,1.227,1.227,0,0,0,.124.006,1.166,1.166,0,0,0,.122-.006.443.443,0,0,0-.008.075c0,.036,0,.1-.007.189,0,.129,0,.269,0,.419h0c.106-.081.231-.187.371-.316s.277-.261.37-.361h.126a1.017,1.017,0,0,0,.125-.006.733.733,0,0,0-.09.068c-.044.035-.124.1-.24.2l-.2.167-.253.223h0l.262.28.267.279c.1.1.162.166.2.2s.057.057.064.063c-.045,0-.093,0-.151,0s-.109,0-.153,0a.761.761,0,0,0-.079-.107c-.03-.035-.079-.086-.146-.158l-.125-.131c-.137-.143-.254-.26-.35-.355h0l0,.012c0,.175,0,.335,0,.475Zm1.247,0c0-.141.005-.3.005-.475s0-.334-.005-.475c0-.091-.005-.154-.008-.19s-.005-.059-.008-.074a1.186,1.186,0,0,0,.122.005,1.207,1.207,0,0,0,.124-.005.5.5,0,0,0-.009.074c0,.036,0,.1-.008.19,0,.142,0,.3,0,.475s0,.335,0,.475c0,.093.006.156.008.19a.471.471,0,0,0,.009.075c-.038,0-.077,0-.124,0s-.086,0-.122,0a.622.622,0,0,0,.008-.075c0-.035.005-.1.008-.19Zm.826,0c0,.09.006.153.009.187a.466.466,0,0,0,.009.078.691.691,0,0,0-.084,0,.638.638,0,0,0-.084,0,.476.476,0,0,0,.007-.075c0-.034,0-.1.008-.19q0-.212.005-.475c0-.173,0-.331-.005-.469,0-.093-.006-.156-.008-.19a.49.49,0,0,0-.007-.075h.071q.306.309.786.76l.4.367h0v-.377c0-.181,0-.345-.006-.491,0-.091,0-.155-.006-.191a.357.357,0,0,0-.008-.073.568.568,0,0,0,.084.005.523.523,0,0,0,.084-.005c0,.014-.005.039-.007.073s0,.1-.008.191c0,.145-.006.307-.006.49,0,.3,0,.549.014.75h-.066c-.2-.209-.468-.462-.788-.76l-.4-.372h0v.366c0,.176,0,.336.008.475Zm2.457.29a.939.939,0,0,1-.632-.206.662.662,0,0,1-.242-.533.724.724,0,0,1,.249-.57.95.95,0,0,1,.65-.218,1.765,1.765,0,0,1,.346.031,1.25,1.25,0,0,1,.3.1c-.012.033-.023.061-.03.086s-.015.056-.026.091h-.037a.779.779,0,0,0-.524-.218.672.672,0,0,0-.5.188.686.686,0,0,0-.185.5.623.623,0,0,0,.185.472.688.688,0,0,0,.5.178,1.178,1.178,0,0,0,.4-.071h0v-.149c0-.1,0-.17-.005-.223s-.01-.111-.019-.174a1.2,1.2,0,0,0,.126.006,1.169,1.169,0,0,0,.125-.006.509.509,0,0,0-.012.09c0,.034,0,.094-.006.173v.04c0,.1,0,.169,0,.211a.785.785,0,0,0,.011.1h0a2.284,2.284,0,0,1-.676.093Zm1.777-.29q.006-.212.006-.475c0-.172,0-.33-.006-.47,0-.093,0-.156-.008-.19a.4.4,0,0,0-.006-.075l.163,0,.117,0h0l.117-.005h.1a.8.8,0,0,1,.43.091.314.314,0,0,1,.141.282.366.366,0,0,1-.167.318.82.82,0,0,1-.466.113,1.59,1.59,0,0,1-.21-.011h0c0,.156,0,.3.005.421,0,.093.006.158.008.192a.634.634,0,0,0,.007.073c-.036,0-.076,0-.122,0s-.087,0-.122,0a.358.358,0,0,0,.006-.075c0-.035,0-.1.008-.19Zm.208-.518h0c.049,0,.1.006.16.006a.538.538,0,0,0,.325-.089.268.268,0,0,0,.121-.229.24.24,0,0,0-.1-.209.543.543,0,0,0-.3-.07c-.075,0-.144,0-.206.008h0v.582Zm1.083.518c.077-.138.158-.3.246-.468.149-.293.267-.539.355-.741h.058c.089.2.2.444.348.739.085.173.164.331.234.47l.141.265c-.041,0-.084,0-.133,0s-.093,0-.133,0a.943.943,0,0,0-.035-.108c-.015-.035-.037-.087-.07-.156l-.135-.287h0a2.543,2.543,0,0,0-.3-.018,1.438,1.438,0,0,0-.3.018h0c-.049.1-.1.2-.133.287-.029.062-.05.113-.064.147s-.026.075-.038.118a.841.841,0,0,0-.1,0,.9.9,0,0,0-.1,0,.666.666,0,0,0,.043-.068l.109-.2Zm.579-.9c-.066.126-.137.267-.212.425l-.026.053h0a1.585,1.585,0,0,0,.236.014c.084,0,.161-.006.234-.014h0l-.024-.05-.208-.428Z" transform="translate(-273.65 -390.364)" fill="#fff"/>
  <path id="Path_15" data-name="Path 15" d="M324.6,399.5c0-.141.005-.3.005-.475s0-.334-.005-.475c0-.091-.006-.155-.006-.191s-.005-.059-.008-.073c.073,0,.135,0,.187.006s.09,0,.117,0h0l.121-.005h.1a.709.709,0,0,1,.4.088.289.289,0,0,1,.134.26.331.331,0,0,1-.2.292.861.861,0,0,1-.3.1h0c.08.1.177.206.29.332l.132.142.185.2.064.064c-.043,0-.093,0-.149,0s-.106,0-.15,0a.669.669,0,0,0-.074-.106c-.028-.035-.072-.088-.137-.16l-.135-.153c-.1-.119-.2-.221-.28-.308h-.081q0,.256.006.46c0,.093.006.157.007.191a.523.523,0,0,0,.008.075c-.036,0-.076,0-.122,0s-.086,0-.121,0c0-.014,0-.037.008-.074s0-.1.006-.191Zm.207-.555h0c.035,0,.073,0,.111,0a.667.667,0,0,0,.353-.08.247.247,0,0,0,.131-.218.216.216,0,0,0-.1-.193.522.522,0,0,0-.29-.068c-.075,0-.142,0-.2.008h0v.554Zm1.609.555c0-.141.005-.3.005-.475,0-.244,0-.453-.009-.629h-.127c-.079,0-.157,0-.236.005s-.132.008-.16.014a.266.266,0,0,0,.008-.07.258.258,0,0,0-.008-.072c.088.006.187.01.3.012s.2.006.256.006h.124c.064,0,.153,0,.263-.006s.209-.006.292-.012a.24.24,0,0,0-.009.072.246.246,0,0,0,.009.07c-.031-.005-.083-.009-.164-.014s-.155-.005-.232-.005h-.089q-.011.262-.01.628c0,.175,0,.335.006.475,0,.093.007.156.008.19a.538.538,0,0,0,.007.075c-.037,0-.077,0-.123,0s-.086,0-.121,0a.494.494,0,0,0,.006-.075c0-.035.005-.1.008-.19Zm1.148,0c0,.09.005.153.007.187s.005.062.008.078a.763.763,0,0,0-.167,0,.374.374,0,0,0,.008-.075c0-.034.005-.1.007-.19,0-.141.005-.3.005-.475s0-.331-.005-.469c0-.093-.005-.156-.007-.19a.383.383,0,0,0-.008-.075h.071q.307.309.788.76l.4.367h0v-.377c0-.181,0-.345,0-.491,0-.091-.006-.155-.009-.191a.337.337,0,0,0-.006-.073.686.686,0,0,0,.167,0,.723.723,0,0,0-.008.073c0,.037,0,.1-.007.191,0,.145,0,.307,0,.489,0,.3,0,.549.011.75h-.066c-.2-.209-.467-.462-.785-.76l-.4-.372h0v.366c0,.177,0,.336.009.475Zm1.651.276a.513.513,0,0,0,.007-.074c0-.035,0-.1.008-.19,0-.144.006-.307.006-.486s0-.343-.006-.487c0-.091-.006-.155-.008-.19a.572.572,0,0,0-.007-.074.844.844,0,0,0,.141.012c.066,0,.133.005.2.005h.184c.071,0,.138,0,.2,0a1.055,1.055,0,0,0,.149-.014.435.435,0,0,0-.006.075.394.394,0,0,0,.006.072,1.257,1.257,0,0,0-.144-.014c-.07,0-.137-.006-.2-.006h-.085c-.073,0-.142,0-.206,0h0l-.008.539h.212c.072,0,.143,0,.218-.005a1.264,1.264,0,0,0,.155-.014.291.291,0,0,0-.008.073.271.271,0,0,0,.008.072,1.471,1.471,0,0,0-.155-.013c-.075,0-.146-.006-.218-.006h-.211c0,.232,0,.432.006.6h0l.16,0h.08c.073,0,.148,0,.229-.008a1.114,1.114,0,0,0,.166-.015.438.438,0,0,0-.006.075.43.43,0,0,0,.006.073c-.034-.006-.085-.009-.154-.013s-.135,0-.191,0h-.184c-.063,0-.126,0-.191,0s-.117.008-.149.012Zm1.254-.276c0-.141,0-.3,0-.475s0-.334,0-.475c0-.091-.006-.155-.007-.191a.384.384,0,0,0-.01-.073c.075,0,.138,0,.188.006s.09,0,.118,0h0l.121-.005h.1a.708.708,0,0,1,.4.088.287.287,0,0,1,.133.26.33.33,0,0,1-.2.292.856.856,0,0,1-.3.1h0q.121.143.29.332l.131.142c.092.1.152.165.187.2s.055.057.065.064c-.044,0-.1,0-.151,0s-.107,0-.151,0a.9.9,0,0,0-.073-.106c-.026-.035-.073-.088-.137-.16l-.133-.153c-.105-.119-.2-.221-.281-.308h-.082c0,.171,0,.324.005.46,0,.093.006.157.008.191s.005.059.007.075c-.036,0-.077,0-.122,0s-.086,0-.123,0a.331.331,0,0,0,.01-.074c0-.034,0-.1.007-.191Zm.206-.555h0c.036,0,.072,0,.111,0a.663.663,0,0,0,.352-.08.249.249,0,0,0,.132-.218.218.218,0,0,0-.1-.193.52.52,0,0,0-.291-.068c-.075,0-.14,0-.2.008h0v.554Z" transform="translate(-291.362 -390.369)" fill="#fff"/>
</svg>
