<svg xmlns="http://www.w3.org/2000/svg" width="26.317" height="27.267" viewBox="0 0 26.317 27.267">
  <g id="central_bank_of_india" data-name="central bank of india" transform="translate(0)">
    <path id="path5597" d="M302.044,279.692l-6.642-6.514-1.594.013h-2.652v-.777l2.652-.019,1.628-.022,7.122,7.249Zm-2.172.042-4.47-4.342h-1.594l-2.645.013,0-.782,2.647-.024,1.629-.018,4.949,5.076Zm-6.063,9.588-2.451,2.435-.079-.517,2.53-2.6,3.951-4.079v-4.278h.765l.038,4.316Zm0-2.929,1.752-1.833v-4.278h.767l.039,4.316-2.558,2.521-2.49,2.452-.071-.513Zm-5.52-5.045-1.408-1.486,1.408-1.389,2.891-2.842,2.628,2.78,1.517,1.6-1.517,1.5-2.787,2.735Zm0,6.347-1.63.012-7.119-7.242.511-.076,6.641,6.512h1.6l2.645-.005v.772Zm-6.075-7.341,4.475,4.333h1.6l2.645-.005v.777l-2.645.028-1.64.019-4.945-5.079Zm8.628-9.326-2.553,2.663-1.755,1.827v4.275h-.769l-.034-4.305,2.558-2.525,2.488-2.455Zm-2.553-.27,2.452-2.43.071.513-2.523,2.6-3.952,4.073v4.275h-.77l-.032-4.305Zm7.292.293v-4.7l-4.724.015-2.568,2.713-6.008,6.371h-4.513v4.616l8.723,9.085v4.466h4.442l2.876-2.9,5.914-5.963h4.362v-5.064Z" transform="translate(-277.768 -266.349)" fill="#ce0f3e"/>
  </g>
</svg>
