<svg id="andhra_bank" data-name="andhra bank" xmlns="http://www.w3.org/2000/svg" width="28.924" height="28.875" viewBox="0 0 28.924 28.875">
  <path id="Path_1" data-name="Path 1" d="M14.935,349.875a8.9,8.9,0,0,1-8.861-7.99C6,341.1,6,340.051,6,339.252v-7.027h6.714v8.194c0,.2-.012.41,0,.606a2.224,2.224,0,1,0,1.341-2.214v-6.654q.433-.043.878-.043a8.881,8.881,0,0,1,0,17.761ZM8.537,321h4.184v4.16A10.191,10.191,0,0,0,8.537,321Z" transform="translate(5.108 -321)" fill="#0e3192" fill-rule="evenodd"/>
  <path id="Path_2" data-name="Path 2" d="M-43.119,321.276a8.9,8.9,0,0,1,8.861,7.99c.078.785.074,1.834.074,2.633v7.027H-40.9v-8.194c0-.2.012-.41,0-.606a2.225,2.225,0,0,0-2.218-2.055,2.225,2.225,0,0,0-2.225,2.225,2.225,2.225,0,0,0,2.225,2.225,2.215,2.215,0,0,0,.878-.18v6.654q-.433.043-.878.043A8.88,8.88,0,0,1-52,330.157a8.881,8.881,0,0,1,8.881-8.881Z" transform="translate(52 -321.223)" fill="red" fill-rule="evenodd"/>
</svg>
